<?xml version="1.0" encoding="UTF-8" standalone="no"?>
<svg width="860px" height="660px" viewBox="0 0 860 660" version="1.1" xmlns="http://www.w3.org/2000/svg" xmlns:xlink="http://www.w3.org/1999/xlink" xmlns:sketch="http://www.bohemiancoding.com/sketch/ns">
            <g id="Okey-Rules" transform="translate(214.000000, 90.000000)">
                <g id="Dialog-2" sketch:type="MSShapeGroup">
                    <rect id="Rectangle-54" stroke="#48AF5E" stroke-width="10" fill="#FFFFFF" x="0" y="0" width="643" height="515" rx="30"></rect>
                    <rect id="Rectangle-55" fill="#48AF5E" x="4" y="5" width="635" height="67"></rect>
                    <path d="M10,109 L10,486.008806 C10,497.049644 18.9566601,506.000011 30.0008497,506.000011 L612.99915,506.000018 C624.045315,506.000018 633,497.037944 633,486.001168 L633,100 C545,182.999994 292,228.999997 10,109 Z" id="Rectangle-60" fill="#DFF1F4"></path>
                </g>
                <text id="Notes" sketch:type="MSTextLayer" font-family="Exo 2" font-size="20" font-weight="normal" fill="#4A4A4A">
                    <tspan x="22" y="441.5">Make 3x3+1x5, 2x3+2x4 or 2x5+1x4 Runs/Sets or 7 Pairs. Use </tspan>
                    <tspan x="22" y="465.5">Okey Joker (which is +1 same color as central Gosterme card) or </tspan>
                    <tspan x="22" y="489.5">Fake Joker to substitute any needed card in your combination.</tspan>
                </text>
                <text id="Winning-Deck-3x3+1x5" sketch:type="MSTextLayer" font-family="Exo 2" font-size="35.1627907" font-weight="normal" fill="#3B5998">
                    <tspan x="143" y="116">Winning Deck 3x3+1x5</tspan>
                </text>
                <text fill="#FFFFFF" sketch:type="MSTextLayer" font-family="Exo 2" font-size="35.1627907" font-weight="bold">
                    <tspan x="24" y="48.5284512">Okey Rules</tspan>
                </text>
                <g id="Small-Deck" transform="translate(121.000000, 132.000000)">
                    <g id="Deck" sketch:type="MSShapeGroup">
                        <rect id="Rectangle-path" fill="#AF7B58" x="0" y="1.95918367" width="495" height="42.4489796"></rect>
                        <rect id="Rectangle-path" fill="#AF7B58" x="0" y="48.9795918" width="495" height="47.0204082"></rect>
                        <path d="M495,44.4154776 L215.963859,44.4154776 L0,44.4081633 L0,48.9731918 L213.326437,48.9731918 L495,48.9795918 L495,44.4154776 Z" id="Shape" fill="#BC8864"></path>
                        <path d="M495,2.6122449 L0,2.6122449 L2.02176562,0 L492.816586,0 L495,2.6122449 L495,2.6122449 Z" id="Shape" fill="#BC8864"></path>
                    </g>
                    <g id="1x3-Fours-Set" transform="translate(2.000000, 1.000000)">
                        <g id="Slot-1,1-2">
                            <rect id="Shape" fill="#FFFFFF" sketch:type="MSShapeGroup" x="-0.347897436" y="-0.256321121" width="32" height="46" rx="8"></rect>
                            <text id="4" sketch:type="MSTextLayer" font-family="Lucida Grande" font-size="18.8571429" font-weight="bold" sketch:alignment="middle" letter-spacing="-1" fill="#F8E81C">
                                <tspan x="9.66488882" y="20.7657996">4</tspan>
                            </text>
                            <path d="M15.1794872,39.6551724 C18.1250058,39.6551724 20.5128205,37.3471231 20.5128205,34.5 C20.5128205,31.6528769 18.1250058,29.3448276 15.1794872,29.3448276 C12.2339685,29.3448276 9.84615385,31.6528769 9.84615385,34.5 C9.84615385,37.3471231 12.2339685,39.6551724 15.1794872,39.6551724 Z" id="Oval-23" fill="#F8E81C" sketch:type="MSShapeGroup"></path>
                        </g>
                        <g id="Slot-1,1-3" transform="translate(33.000000, 0.000000)">
                            <rect id="Shape" fill="#FFFFFF" sketch:type="MSShapeGroup" x="-0.347897436" y="-0.256321121" width="32" height="46" rx="8"></rect>
                            <text id="4" sketch:type="MSTextLayer" font-family="Lucida Grande" font-size="18.8571429" font-weight="bold" sketch:alignment="middle" letter-spacing="-1" fill="#CE290F">
                                <tspan x="9.66488882" y="20.7657996">4</tspan>
                            </text>
                            <path d="M15.1794872,39.6551724 C18.1250058,39.6551724 20.5128205,37.3471231 20.5128205,34.5 C20.5128205,31.6528769 18.1250058,29.3448276 15.1794872,29.3448276 C12.2339685,29.3448276 9.84615385,31.6528769 9.84615385,34.5 C9.84615385,37.3471231 12.2339685,39.6551724 15.1794872,39.6551724 Z" id="Oval-23" fill="#CE290F" sketch:type="MSShapeGroup"></path>
                        </g>
                        <g id="Slot-1,1-4" transform="translate(66.000000, 0.000000)">
                            <rect id="Shape" fill="#FFFFFF" sketch:type="MSShapeGroup" x="-0.347897436" y="-0.256321121" width="32" height="46" rx="8"></rect>
                            <text id="4" sketch:type="MSTextLayer" font-family="Lucida Grande" font-size="18.8571429" font-weight="bold" sketch:alignment="middle" letter-spacing="-1" fill="#48AF5E">
                                <tspan x="9.66488882" y="20.7657996">4</tspan>
                            </text>
                            <path d="M15.1794872,39.6551724 C18.1250058,39.6551724 20.5128205,37.3471231 20.5128205,34.5 C20.5128205,31.6528769 18.1250058,29.3448276 15.1794872,29.3448276 C12.2339685,29.3448276 9.84615385,31.6528769 9.84615385,34.5 C9.84615385,37.3471231 12.2339685,39.6551724 15.1794872,39.6551724 Z" id="Oval-23" fill="#48AF5E" sketch:type="MSShapeGroup"></path>
                        </g>
                    </g>
                    <g id="1x3-Green-Run" transform="translate(115.000000, 49.000000)">
                        <g id="Slot-1,1-5">
                            <rect id="Shape" fill="#FFFFFF" sketch:type="MSShapeGroup" x="-0.347897436" y="-0.256321121" width="32" height="46" rx="8"></rect>
                            <text id="4" sketch:type="MSTextLayer" font-family="Lucida Grande" font-size="18.8571429" font-weight="bold" sketch:alignment="middle" letter-spacing="-1" fill="#48AF5E">
                                <tspan x="9.66488882" y="20.7657996">4</tspan>
                            </text>
                            <path d="M15.1794872,39.6551724 C18.1250058,39.6551724 20.5128205,37.3471231 20.5128205,34.5 C20.5128205,31.6528769 18.1250058,29.3448276 15.1794872,29.3448276 C12.2339685,29.3448276 9.84615385,31.6528769 9.84615385,34.5 C9.84615385,37.3471231 12.2339685,39.6551724 15.1794872,39.6551724 Z" id="Oval-23" fill="#48AF5E" sketch:type="MSShapeGroup"></path>
                        </g>
                        <g id="Slot-1,1-7" transform="translate(66.000000, 0.000000)">
                            <rect id="Shape" fill="#FFFFFF" sketch:type="MSShapeGroup" x="-0.347897436" y="-0.256321121" width="32" height="46" rx="8"></rect>
                            <text id="6" sketch:type="MSTextLayer" font-family="Lucida Grande" font-size="18.8571429" font-weight="bold" sketch:alignment="middle" letter-spacing="-1" fill="#48AF5E">
                                <tspan x="9.66488882" y="20.7657996">6</tspan>
                            </text>
                            <path d="M15.1794872,39.6551724 C18.1250058,39.6551724 20.5128205,37.3471231 20.5128205,34.5 C20.5128205,31.6528769 18.1250058,29.3448276 15.1794872,29.3448276 C12.2339685,29.3448276 9.84615385,31.6528769 9.84615385,34.5 C9.84615385,37.3471231 12.2339685,39.6551724 15.1794872,39.6551724 Z" id="Oval-23" fill="#48AF5E" sketch:type="MSShapeGroup"></path>
                        </g>
                        <g id="Okey-Run" transform="translate(32.000000, 0.000000)">
                            <rect id="Shape" fill="#FFFFFF" sketch:type="MSShapeGroup" x="0.652102564" y="-0.256321121" width="32" height="46" rx="8"></rect>
                            <path d="M16.1794872,39.6551724 C19.1250058,39.6551724 21.5128205,37.3471231 21.5128205,34.5 C21.5128205,31.6528769 19.1250058,29.3448276 16.1794872,29.3448276 C13.2339685,29.3448276 10.8461538,31.6528769 10.8461538,34.5 C10.8461538,37.3471231 13.2339685,39.6551724 16.1794872,39.6551724 Z" id="Oval-23" fill="#CE290F" sketch:type="MSShapeGroup"></path>
                            <text id="10" sketch:type="MSTextLayer" font-family="Lucida Grande" font-size="18.8571429" font-weight="bold" sketch:alignment="middle" fill="#CE290F">
                                <tspan x="3.74003405" y="20.1361222">10</tspan>
                            </text>
                        </g>
                    </g>
                    <g id="1x5-Red-Run" transform="translate(320.000000, 1.000000)">
                        <g id="Slot-1,1-17" transform="translate(66.000000, 0.000000)">
                            <rect id="Shape" fill="#FFFFFF" sketch:type="MSShapeGroup" x="0.652102564" y="-0.256321121" width="32" height="46" rx="8"></rect>
                            <text id="11" sketch:type="MSTextLayer" font-family="Lucida Grande" font-size="18.8571429" font-weight="bold" sketch:alignment="middle" fill="#48AF5E">
                                <tspan x="3.74003405" y="20.1361222">11</tspan>
                            </text>
                            <path d="M16.1794872,39.6551724 C19.1250058,39.6551724 21.5128205,37.3471231 21.5128205,34.5 C21.5128205,31.6528769 19.1250058,29.3448276 16.1794872,29.3448276 C13.2339685,29.3448276 10.8461538,31.6528769 10.8461538,34.5 C10.8461538,37.3471231 13.2339685,39.6551724 16.1794872,39.6551724 Z" id="Oval-23" fill="#48AF5E" sketch:type="MSShapeGroup"></path>
                        </g>
                        <g id="Slot-1,1-14" transform="translate(33.000000, 0.000000)">
                            <rect id="Shape" fill="#FFFFFF" sketch:type="MSShapeGroup" x="0.652102564" y="-0.256321121" width="32" height="46" rx="8"></rect>
                            <text id="12" sketch:type="MSTextLayer" font-family="Lucida Grande" font-size="18.8571429" font-weight="bold" sketch:alignment="middle" letter-spacing="-10" fill="#48AF5E">
                                <tspan x="5.62586344" y="20.1361222">12</tspan>
                            </text>
                            <path d="M16.1794872,39.6551724 C19.1250058,39.6551724 21.5128205,37.3471231 21.5128205,34.5 C21.5128205,31.6528769 19.1250058,29.3448276 16.1794872,29.3448276 C13.2339685,29.3448276 10.8461538,31.6528769 10.8461538,34.5 C10.8461538,37.3471231 13.2339685,39.6551724 16.1794872,39.6551724 Z" id="Oval-23" fill="#48AF5E" sketch:type="MSShapeGroup"></path>
                        </g>
                        <g id="Slot-1,1-18">
                            <rect id="Shape" fill="#FFFFFF" sketch:type="MSShapeGroup" x="0.652102564" y="-0.256321121" width="32" height="46" rx="8"></rect>
                            <text id="13" sketch:type="MSTextLayer" font-family="Lucida Grande" font-size="18.8571429" font-weight="bold" sketch:alignment="middle" fill="#48AF5E">
                                <tspan x="3.74003405" y="20.1361222">13</tspan>
                            </text>
                            <path d="M16.1794872,39.6551724 C19.1250058,39.6551724 21.5128205,37.3471231 21.5128205,34.5 C21.5128205,31.6528769 19.1250058,29.3448276 16.1794872,29.3448276 C13.2339685,29.3448276 10.8461538,31.6528769 10.8461538,34.5 C10.8461538,37.3471231 13.2339685,39.6551724 16.1794872,39.6551724 Z" id="Oval-23" fill="#48AF5E" sketch:type="MSShapeGroup"></path>
                        </g>
                        <g id="Slot-1,1-15" transform="translate(99.000000, 0.000000)">
                            <rect id="Shape" fill="#FFFFFF" sketch:type="MSShapeGroup" x="0.652102564" y="-0.256321121" width="32" height="46" rx="8"></rect>
                            <path d="M16.1794872,39.6551724 C19.1250058,39.6551724 21.5128205,37.3471231 21.5128205,34.5 C21.5128205,31.6528769 19.1250058,29.3448276 16.1794872,29.3448276 C13.2339685,29.3448276 10.8461538,31.6528769 10.8461538,34.5 C10.8461538,37.3471231 13.2339685,39.6551724 16.1794872,39.6551724 Z" id="Oval-23" fill="#48AF5E" sketch:type="MSShapeGroup"></path>
                            <text id="10" sketch:type="MSTextLayer" font-family="Lucida Grande" font-size="18.8571429" font-weight="bold" sketch:alignment="middle" fill="#48AF5E">
                                <tspan x="3.74003405" y="20.1361222">10</tspan>
                            </text>
                        </g>
                        <g id="Slot-1,1-16" transform="translate(133.000000, 0.000000)">
                            <rect id="Shape" fill="#FFFFFF" sketch:type="MSShapeGroup" x="-0.347897436" y="-0.256321121" width="32" height="46" rx="8"></rect>
                            <text id="9" sketch:type="MSTextLayer" font-family="Lucida Grande" font-size="18.8571429" font-weight="bold" sketch:alignment="middle" letter-spacing="-1" fill="#48AF5E">
                                <tspan x="9.66488882" y="20.7657996">9</tspan>
                            </text>
                            <path d="M15.1794872,39.6551724 C18.1250058,39.6551724 20.5128205,37.3471231 20.5128205,34.5 C20.5128205,31.6528769 18.1250058,29.3448276 15.1794872,29.3448276 C12.2339685,29.3448276 9.84615385,31.6528769 9.84615385,34.5 C9.84615385,37.3471231 12.2339685,39.6551724 15.1794872,39.6551724 Z" id="Oval-23" fill="#48AF5E" sketch:type="MSShapeGroup"></path>
                        </g>
                        <g id="Jocker-Run" transform="translate(26.000000, 0.000000)">
                            <rect id="Shape" fill="#FFFFFF" sketch:type="MSShapeGroup" x="7.65210256" y="-0.260675479" width="32" height="46" rx="8"></rect>
                            <text id="❦" sketch:type="MSTextLayer" font-family="Minion Pro" font-size="26" font-weight="normal" sketch:alignment="middle" letter-spacing="-1.37878788" fill="#517ECE">
                                <tspan x="13.7101375" y="29.2222222">❦</tspan>
                                <tspan x="33.4693494" y="29.2222222" font-family="Lucida Grande" font-size="18.8571429" font-weight="bold" letter-spacing="-1"></tspan>
                            </text>
                        </g>
                    </g>
                    <g id="1x3-Red-Run" transform="translate(165.000000, 1.000000)">
                        <g id="Slot-1,1-21" transform="translate(66.000000, 0.000000)">
                            <rect id="Shape" fill="#FFFFFF" sketch:type="MSShapeGroup" x="0.652102564" y="-0.256321121" width="32" height="46" rx="8"></rect>
                            <text id="3" sketch:type="MSTextLayer" font-family="Lucida Grande" font-size="18.8571429" font-weight="bold" sketch:alignment="middle" letter-spacing="-10" fill="#CE290F">
                                <tspan x="10.9026753" y="20.1361222">3</tspan>
                            </text>
                            <path d="M16.1794872,39.6551724 C19.1250058,39.6551724 21.5128205,37.3471231 21.5128205,34.5 C21.5128205,31.6528769 19.1250058,29.3448276 16.1794872,29.3448276 C13.2339685,29.3448276 10.8461538,31.6528769 10.8461538,34.5 C10.8461538,37.3471231 13.2339685,39.6551724 16.1794872,39.6551724 Z" id="Oval-23" fill="#CE290F" sketch:type="MSShapeGroup"></path>
                        </g>
                        <g id="Slot-1,1-19" transform="translate(33.000000, 0.000000)">
                            <rect id="Shape" fill="#FFFFFF" sketch:type="MSShapeGroup" x="0.652102564" y="-0.256321121" width="32" height="46" rx="8"></rect>
                            <text id="2" sketch:type="MSTextLayer" font-family="Lucida Grande" font-size="18.8571429" font-weight="bold" sketch:alignment="middle" letter-spacing="-10" fill="#CE290F">
                                <tspan x="10.9026753" y="20.1361222">2</tspan>
                            </text>
                            <path d="M16.1794872,39.6551724 C19.1250058,39.6551724 21.5128205,37.3471231 21.5128205,34.5 C21.5128205,31.6528769 19.1250058,29.3448276 16.1794872,29.3448276 C13.2339685,29.3448276 10.8461538,31.6528769 10.8461538,34.5 C10.8461538,37.3471231 13.2339685,39.6551724 16.1794872,39.6551724 Z" id="Oval-23" fill="#CE290F" sketch:type="MSShapeGroup"></path>
                        </g>
                        <g id="Slot-1,1-20">
                            <rect id="Shape" fill="#FFFFFF" sketch:type="MSShapeGroup" x="0.652102564" y="-0.256321121" width="32" height="46" rx="8"></rect>
                            <text id="1" sketch:type="MSTextLayer" font-family="Lucida Grande" font-size="18.8571429" font-weight="bold" sketch:alignment="middle" letter-spacing="-10" fill="#CE290F">
                                <tspan x="10.9026753" y="20.1361222">1</tspan>
                            </text>
                            <path d="M16.1794872,39.6551724 C19.1250058,39.6551724 21.5128205,37.3471231 21.5128205,34.5 C21.5128205,31.6528769 19.1250058,29.3448276 16.1794872,29.3448276 C13.2339685,29.3448276 10.8461538,31.6528769 10.8461538,34.5 C10.8461538,37.3471231 13.2339685,39.6551724 16.1794872,39.6551724 Z" id="Oval-23" fill="#CE290F" sketch:type="MSShapeGroup"></path>
                        </g>
                    </g>
                </g>
                <g id="Run" transform="translate(40.000000, 242.000000)">
                    <g id="Slot-1,1-10" transform="translate(33.000000, 0.000000)">
                        <rect id="Shape" fill="#FFFFFF" sketch:type="MSShapeGroup" x="0.652102564" y="-0.256321121" width="32" height="46" rx="8"></rect>
                        <text id="11" sketch:type="MSTextLayer" font-family="Lucida Grande" font-size="18.8571429" font-weight="bold" sketch:alignment="middle" fill="#CE290F">
                            <tspan x="3.74003405" y="20.1361222">11</tspan>
                        </text>
                        <path d="M16.1794872,39.6551724 C19.1250058,39.6551724 21.5128205,37.3471231 21.5128205,34.5 C21.5128205,31.6528769 19.1250058,29.3448276 16.1794872,29.3448276 C13.2339685,29.3448276 10.8461538,31.6528769 10.8461538,34.5 C10.8461538,37.3471231 13.2339685,39.6551724 16.1794872,39.6551724 Z" id="Oval-23" fill="#CE290F" sketch:type="MSShapeGroup"></path>
                    </g>
                    <g id="Slot-1,1-13">
                        <rect id="Shape" fill="#FFFFFF" sketch:type="MSShapeGroup" x="0.652102564" y="-0.256321121" width="32" height="46" rx="8"></rect>
                        <text id="12" sketch:type="MSTextLayer" font-family="Lucida Grande" font-size="18.8571429" font-weight="bold" sketch:alignment="middle" fill="#CE290F">
                            <tspan x="3.74003405" y="20.1361222">12</tspan>
                        </text>
                        <path d="M16.1794872,39.6551724 C19.1250058,39.6551724 21.5128205,37.3471231 21.5128205,34.5 C21.5128205,31.6528769 19.1250058,29.3448276 16.1794872,29.3448276 C13.2339685,29.3448276 10.8461538,31.6528769 10.8461538,34.5 C10.8461538,37.3471231 13.2339685,39.6551724 16.1794872,39.6551724 Z" id="Oval-23" fill="#CE290F" sketch:type="MSShapeGroup"></path>
                    </g>
                    <g id="Slot-1,1-8" transform="translate(66.000000, 0.000000)">
                        <rect id="Shape" fill="#FFFFFF" sketch:type="MSShapeGroup" x="0.652102564" y="-0.256321121" width="32" height="46" rx="8"></rect>
                        <path d="M16.1794872,39.6551724 C19.1250058,39.6551724 21.5128205,37.3471231 21.5128205,34.5 C21.5128205,31.6528769 19.1250058,29.3448276 16.1794872,29.3448276 C13.2339685,29.3448276 10.8461538,31.6528769 10.8461538,34.5 C10.8461538,37.3471231 13.2339685,39.6551724 16.1794872,39.6551724 Z" id="Oval-23" fill="#CE290F" sketch:type="MSShapeGroup"></path>
                        <text id="10" sketch:type="MSTextLayer" font-family="Lucida Grande" font-size="18.8571429" font-weight="bold" sketch:alignment="middle" fill="#CE290F">
                            <tspan x="3.74003405" y="20.1361222">10</tspan>
                        </text>
                    </g>
                    <g id="Slot-1,1-9" transform="translate(100.000000, 0.000000)">
                        <rect id="Shape" fill="#FFFFFF" sketch:type="MSShapeGroup" x="-0.347897436" y="-0.256321121" width="32" height="46" rx="8"></rect>
                        <text id="9" sketch:type="MSTextLayer" font-family="Lucida Grande" font-size="18.8571429" font-weight="bold" sketch:alignment="middle" letter-spacing="-1" fill="#CE290F">
                            <tspan x="9.66488882" y="20.7657996">9</tspan>
                        </text>
                        <path d="M15.1794872,39.6551724 C18.1250058,39.6551724 20.5128205,37.3471231 20.5128205,34.5 C20.5128205,31.6528769 18.1250058,29.3448276 15.1794872,29.3448276 C12.2339685,29.3448276 9.84615385,31.6528769 9.84615385,34.5 C9.84615385,37.3471231 12.2339685,39.6551724 15.1794872,39.6551724 Z" id="Oval-23" fill="#CE290F" sketch:type="MSShapeGroup"></path>
                    </g>
                    <text sketch:type="MSTextLayer" font-family="Exo 2" font-size="35.1627907" font-weight="normal" fill="#3B5998">
                        <tspan x="147" y="35">Run</tspan>
                    </text>
                </g>
                <g id="Set" transform="translate(73.000000, 301.000000)">
                    <g id="Slot-1,1-10" transform="translate(0.000000, 1.000000)">
                        <rect id="Shape" fill="#FFFFFF" sketch:type="MSShapeGroup" x="0.652102564" y="-0.256321121" width="32" height="46" rx="8"></rect>
                        <text id="7" sketch:type="MSTextLayer" font-family="Lucida Grande" font-size="18.8571429" font-weight="bold" sketch:alignment="middle" letter-spacing="-10" fill="#CE290F">
                            <tspan x="10.9026753" y="20.1361222">7</tspan>
                        </text>
                        <path d="M16.1794872,39.6551724 C19.1250058,39.6551724 21.5128205,37.3471231 21.5128205,34.5 C21.5128205,31.6528769 19.1250058,29.3448276 16.1794872,29.3448276 C13.2339685,29.3448276 10.8461538,31.6528769 10.8461538,34.5 C10.8461538,37.3471231 13.2339685,39.6551724 16.1794872,39.6551724 Z" id="Oval-23" fill="#CE290F" sketch:type="MSShapeGroup"></path>
                    </g>
                    <g id="Slot-1,1-8" transform="translate(33.000000, 1.000000)">
                        <rect id="Shape" fill="#FFFFFF" sketch:type="MSShapeGroup" x="0.652102564" y="-0.256321121" width="32" height="46" rx="8"></rect>
                        <path d="M16.1794872,39.6551724 C19.1250058,39.6551724 21.5128205,37.3471231 21.5128205,34.5 C21.5128205,31.6528769 19.1250058,29.3448276 16.1794872,29.3448276 C13.2339685,29.3448276 10.8461538,31.6528769 10.8461538,34.5 C10.8461538,37.3471231 13.2339685,39.6551724 16.1794872,39.6551724 Z" id="Oval-23" fill="#48AF5E" sketch:type="MSShapeGroup"></path>
                        <text id="7" sketch:type="MSTextLayer" font-family="Lucida Grande" font-size="18.8571429" font-weight="bold" sketch:alignment="middle" letter-spacing="-10" fill="#48AF5E">
                            <tspan x="10.9026753" y="20.1361222">7</tspan>
                        </text>
                    </g>
                    <g id="Slot-1,1-9" transform="translate(67.000000, 1.000000)">
                        <rect id="Shape" fill="#FFFFFF" sketch:type="MSShapeGroup" x="-0.347897436" y="-0.256321121" width="32" height="46" rx="8"></rect>
                        <text id="7" sketch:type="MSTextLayer" font-family="Lucida Grande" font-size="18.8571429" font-weight="bold" sketch:alignment="middle" letter-spacing="-1" fill="#517ECE">
                            <tspan x="9.66488882" y="20.7657996">7</tspan>
                        </text>
                        <path d="M15.1794872,39.6551724 C18.1250058,39.6551724 20.5128205,37.3471231 20.5128205,34.5 C20.5128205,31.6528769 18.1250058,29.3448276 15.1794872,29.3448276 C12.2339685,29.3448276 9.84615385,31.6528769 9.84615385,34.5 C9.84615385,37.3471231 12.2339685,39.6551724 15.1794872,39.6551724 Z" id="Oval-23" fill="#517ECE" sketch:type="MSShapeGroup"></path>
                    </g>
                    <text sketch:type="MSTextLayer" font-family="Exo 2" font-size="35.1627907" font-weight="normal" fill="#3B5998">
                        <tspan x="114" y="35">Set</tspan>
                    </text>
                </g>
                <g id="Pair" transform="translate(106.000000, 361.000000)">
                    <g id="Slot-1,1-8" transform="translate(0.000000, 1.000000)">
                        <rect id="Shape" fill="#FFFFFF" sketch:type="MSShapeGroup" x="0.652102564" y="-0.256321121" width="32" height="46" rx="8"></rect>
                        <path d="M16.1794872,39.6551724 C19.1250058,39.6551724 21.5128205,37.3471231 21.5128205,34.5 C21.5128205,31.6528769 19.1250058,29.3448276 16.1794872,29.3448276 C13.2339685,29.3448276 10.8461538,31.6528769 10.8461538,34.5 C10.8461538,37.3471231 13.2339685,39.6551724 16.1794872,39.6551724 Z" id="Oval-23" fill="#517ECE" sketch:type="MSShapeGroup"></path>
                        <text id="1" sketch:type="MSTextLayer" font-family="Lucida Grande" font-size="18.8571429" font-weight="bold" sketch:alignment="middle" letter-spacing="-10" fill="#517ECE">
                            <tspan x="10.9026753" y="20.1361222">1</tspan>
                        </text>
                    </g>
                    <g id="Slot-1,1-9" transform="translate(34.000000, 1.000000)">
                        <rect id="Shape" fill="#FFFFFF" sketch:type="MSShapeGroup" x="-0.347897436" y="-0.256321121" width="32" height="46" rx="8"></rect>
                        <text id="1" sketch:type="MSTextLayer" font-family="Lucida Grande" font-size="18.8571429" font-weight="bold" sketch:alignment="middle" letter-spacing="-1" fill="#517ECE">
                            <tspan x="9.66488882" y="20.7657996">1</tspan>
                        </text>
                        <path d="M15.1794872,39.6551724 C18.1250058,39.6551724 20.5128205,37.3471231 20.5128205,34.5 C20.5128205,31.6528769 18.1250058,29.3448276 15.1794872,29.3448276 C12.2339685,29.3448276 9.84615385,31.6528769 9.84615385,34.5 C9.84615385,37.3471231 12.2339685,39.6551724 15.1794872,39.6551724 Z" id="Oval-23" fill="#517ECE" sketch:type="MSShapeGroup"></path>
                    </g>
                    <text sketch:type="MSTextLayer" font-family="Exo 2" font-size="35.1627907" font-weight="normal" fill="#3B5998">
                        <tspan x="81" y="35">Pair</tspan>
                    </text>
                </g>
                <g id="Fake-Jocker" transform="translate(290.000000, 362.000000)">
                    <g id="Slot-1,1-9" transform="translate(0.000000, 1.000000)">
                        <rect id="Shape" fill="#FFFFFF" sketch:type="MSShapeGroup" x="7.65210256" y="-0.256321121" width="32" height="46" rx="8"></rect>
                        <text id="❦" sketch:type="MSTextLayer" font-family="Minion Pro" font-size="26" font-weight="normal" sketch:alignment="middle" letter-spacing="-1.37878788" fill="#517ECE">
                            <tspan x="13.7101375" y="29">❦</tspan>
                            <tspan x="33.4693494" y="29" font-family="Lucida Grande" font-size="18.8571429" font-weight="bold" letter-spacing="-1"></tspan>
                        </text>
                    </g>
                    <text id="Fake-Joker" sketch:type="MSTextLayer" font-family="Exo 2" font-size="35.1627907" font-weight="normal" fill="#3B5998">
                        <tspan x="55" y="35">Fake Joker</tspan>
                    </text>
                </g>
                <g id="Gosterme" transform="translate(297.000000, 242.000000)">
                    <text sketch:type="MSTextLayer" font-family="Exo 2" font-size="35.1627907" font-weight="normal" fill="#3B5998">
                        <tspan x="46" y="35">Gosterme</tspan>
                    </text>
                    <g id="Slot-1,1-11">
                        <rect id="Shape" fill="#FFFFFF" sketch:type="MSShapeGroup" x="-0.347897436" y="-0.256321121" width="32" height="46" rx="8"></rect>
                        <text id="9" sketch:type="MSTextLayer" font-family="Lucida Grande" font-size="18.8571429" font-weight="bold" sketch:alignment="middle" letter-spacing="-1" fill="#CE290F">
                            <tspan x="9.66488882" y="20.7657996">9</tspan>
                        </text>
                        <path d="M15.1794872,39.6551724 C18.1250058,39.6551724 20.5128205,37.3471231 20.5128205,34.5 C20.5128205,31.6528769 18.1250058,29.3448276 15.1794872,29.3448276 C12.2339685,29.3448276 9.84615385,31.6528769 9.84615385,34.5 C9.84615385,37.3471231 12.2339685,39.6551724 15.1794872,39.6551724 Z" id="Oval-23" fill="#CE290F" sketch:type="MSShapeGroup"></path>
                    </g>
                </g>
                <g id="Okey" transform="translate(297.000000, 302.000000)">
                    <text id="Okey-Joker" sketch:type="MSTextLayer" font-family="Exo 2" font-size="35.1627907" font-weight="normal" fill="#3B5998">
                        <tspan x="46" y="35">Okey Joker</tspan>
                    </text>
                    <g id="Slot-1,1-12" transform="translate(0.000000, 1.000000)">
                        <rect id="Shape" fill="#FFFFFF" sketch:type="MSShapeGroup" x="0.652102564" y="-0.256321121" width="32" height="46" rx="8"></rect>
                        <path d="M16.1794872,39.6551724 C19.1250058,39.6551724 21.5128205,37.3471231 21.5128205,34.5 C21.5128205,31.6528769 19.1250058,29.3448276 16.1794872,29.3448276 C13.2339685,29.3448276 10.8461538,31.6528769 10.8461538,34.5 C10.8461538,37.3471231 13.2339685,39.6551724 16.1794872,39.6551724 Z" id="Oval-23" fill="#CE290F" sketch:type="MSShapeGroup"></path>
                        <text id="10" sketch:type="MSTextLayer" font-family="Lucida Grande" font-size="18.8571429" font-weight="bold" sketch:alignment="middle" fill="#CE290F">
                            <tspan x="3.74003405" y="20.1361222">10</tspan>
                        </text>
                    </g>
                </g>
            </g>
</svg>