<?xml version="1.0" encoding="UTF-8" standalone="no"?>
<svg width="929px" height="660px" viewBox="0 0 929 660" version="1.1" xmlns="http://www.w3.org/2000/svg" xmlns:xlink="http://www.w3.org/1999/xlink" xmlns:sketch="http://www.bohemiancoding.com/sketch/ns">
    <!-- Generator: Sketch 3.0.3 (7892) - http://www.bohemiancoding.com/sketch -->
    <title>Player-Statistics</title>
    <desc>Created with Sketch.</desc>
    <defs></defs>
    <g id="Page-1" stroke="none" stroke-width="1" fill="none" fill-rule="evenodd" sketch:type="MSPage">
        <g id="Player-Statistics" sketch:type="MSLayerGroup" transform="translate(100.000000, 86.000000)">
            <g id="Dialog-Stats" sketch:type="MSShapeGroup">
                <rect id="Rectangle-54-2" fill="#FFFFFF" x="0" y="0" width="643" height="515" rx="30"></rect>
                <path d="M0,109.199507 L0,494.565651 C0,505.851237 9.24419333,515.000011 20.6429316,515.000011 L622.357068,515.000018 C633.757845,515.000018 643,505.839278 643,494.557844 L643,100 C552.17496,184.839895 291.05297,231.859603 0,109.199507 L0,109.199507 Z" id="Rectangle-60" fill="#DFF1F4"></path>
                <path d="M617,1 C533.816226,0.220335585 200.885526,1 20,1 C15.8280052,1 0,18 0,18 L0,72.000002 L643,72.000002 L643,18 C643,18 629.23674,1.11469245 617,1 Z" id="Rectangle-55" fill="#48AF5E"></path>
                <rect id="Rectangle-54" stroke="#48AF5E" stroke-width="10" x="0" y="0" width="643" height="515" rx="30"></rect>
            </g>
            <g id="Group" transform="translate(19.000000, 13.000000)" font-family="Exo 2" sketch:type="MSTextLayer">
                <text id="Notes" font-size="20" font-weight="normal" fill="#4A4A4A">
                    <tspan x="0" y="441.5">How good is Player (win/lose) per each game type, and how </tspan>
                    <tspan x="0" y="465.5">player usualy reveals the games.</tspan>
                </text>
                <text id="Stat-Left" font-size="23.586" font-weight="normal" fill="#517ECE">
                    <tspan x="0" y="171">Lucky</tspan>
                    <tspan x="0" y="200">Std Color                       124/23</tspan>
                    <tspan x="0" y="229">Std Even/Odd             234/2</tspan>
                    <tspan x="0" y="258">Std Countdown          20/10</tspan>
                    <tspan x="0" y="287">Tour Color 512             30/100</tspan>
                    <tspan x="0" y="316">Tour Even/Odd 64    44/23</tspan>
                </text>
                <text id="Stat-Right" font-size="23.586" font-weight="normal" fill="#517ECE">
                    <tspan x="317.5" y="170.971549">Have 8 Tashes         40</tspan>
                    <tspan x="317.5" y="199.971549">Normal                      124</tspan>
                    <tspan x="317.5" y="228.971549">Okey                           234</tspan>
                </text>
                <text id="Reveals" font-size="35.1627907" font-weight="normal" fill="#3B5998">
                    <tspan x="317.5" y="121">Reveals</tspan>
                </text>
                <text id="Games" font-size="35.1627907" font-weight="normal" fill="#3B5998">
                    <tspan x="0" y="122.014225">Games</tspan>
                </text>
                <text id="Score:-722-" fill="#FFFFFF" font-size="35.1627907" font-weight="bold">
                    <tspan x="0" y="36.0284512">Score: 722 </tspan>
                </text>
                <text id="Rank:-22-" fill="#FFFFFF" font-size="35.1627922" font-weight="bold">
                    <tspan x="458" y="38.0284509">Rank: 22 </tspan>
                </text>
            </g>
        </g>
    </g>
</svg>